HIERARCHY
ROOT Hips
{
	OFFSET 0.00 0.00 0.00
	CHANNELS 6 Xposition Yposition Zposition Xrotation Yrotation Zrotation
	JOINT Spine
	{
		OFFSET 0.00000 0.84964 1.27446
		CHANNELS 3 Xrotation Yrotation Zrotation
		JOINT Spine1
		{
			OFFSET 0.00000 0.29508 1.67346
			CHANNELS 3 Xrotation Yrotation Zrotation
			JOINT Spine2
			{
				OFFSET 0.00000 0.14810 1.69281
				CHANNELS 3 Xrotation Yrotation Zrotation
				JOINT Spine3
				{
					OFFSET 0.00000 0.00000 1.69928
					CHANNELS 3 Xrotation Yrotation Zrotation
					JOINT Neck
					{
						OFFSET 0.00000 -0.63723 4.46061
						CHANNELS 3 Xrotation Yrotation Zrotation
						JOINT Head
						{
							OFFSET 0.00000 -0.40573 2.30101
							CHANNELS 3 Xrotation Yrotation Zrotation
							End Site
							{
								OFFSET 0.00000 0.00000 2.75071
							}
						}
					}
					JOINT RightShoulder
					{
						OFFSET -0.72014 -1.20022 3.88874
						CHANNELS 3 Xrotation Yrotation Zrotation
						JOINT RightArm
						{
							OFFSET -3.57668 0.00000 0.00000
							CHANNELS 3 Xrotation Yrotation Zrotation
							JOINT RightForeArm
							{
								OFFSET -5.92485 0.00000 0.00000
								CHANNELS 3 Xrotation Yrotation Zrotation
								JOINT RightHand
								{
									OFFSET -6.63013 0.00000 0.00000
									CHANNELS 3 Xrotation Yrotation Zrotation
									JOINT RightHandEnd
									{
										OFFSET -1.65321 0.00000 0.00000
										CHANNELS 3 Xrotation Yrotation Zrotation
										End Site
										{
											OFFSET -1.65321 0.00000 0.00000
										}
									}
									JOINT RightHandThumb1
									{
										OFFSET -0.66129 -1.10214 -0.44086
										CHANNELS 3 Yrotation Xrotation Zrotation
										End Site
										{
											OFFSET -1.59688 -0.42788 0.00000
										}
									}
								}
							}
						}
					}
					JOINT LeftShoulder
					{
						OFFSET 0.72014 -1.20022 3.88874
						CHANNELS 3 Xrotation Yrotation Zrotation
						JOINT LeftArm
						{
							OFFSET 3.57668 0.00000 0.00000
							CHANNELS 3 Xrotation Yrotation Zrotation
							JOINT LeftForeArm
							{
								OFFSET 5.92485 0.00000 0.00000
								CHANNELS 3 Xrotation Yrotation Zrotation
								JOINT LeftHand
								{
									OFFSET 6.63013 0.00000 0.00000
									CHANNELS 3 Xrotation Yrotation Zrotation
									JOINT LeftHandEnd
									{
										OFFSET 1.65321 0.00000 0.00000
										CHANNELS 3 Xrotation Yrotation Zrotation
										End Site
										{
											OFFSET 1.65321 0.00000 0.00000
										}
									}
									JOINT LeftHandThumb1
									{
										OFFSET 0.66129 -1.10214 -0.44086
										CHANNELS 3 Yrotation Xrotation Zrotation
										End Site
										{
											OFFSET 1.59688 -0.42788 0.00000
										}
									}
								}
							}
						}
					}
				}
			}
		}
	}
	JOINT RightUpLeg
	{
		OFFSET -2.13640 0.00000 -0.62412
		CHANNELS 3 Xrotation Yrotation Zrotation
		JOINT RightLeg
		{
			OFFSET 0.00000 0.00000 -11.49360
			CHANNELS 3 Xrotation Yrotation Zrotation
			JOINT RightFoot
			{
				OFFSET 0.00000 0.00000 -8.79036
				CHANNELS 3 Xrotation Yrotation Zrotation
				JOINT RightToeBase
				{
					OFFSET 0.00000 -3.94625 -1.43632
					CHANNELS 3 Xrotation Yrotation Zrotation
					End Site
					{
						OFFSET 0.00000 -1.72833 -0.00000
					}
				}
			}
		}
	}
	JOINT LeftUpLeg
	{
		OFFSET 2.13640 0.00000 -0.62412
		CHANNELS 3 Xrotation Yrotation Zrotation
		JOINT LeftLeg
		{
			OFFSET 0.00000 0.00000 -11.49360
			CHANNELS 3 Xrotation Yrotation Zrotation
			JOINT LeftFoot
			{
				OFFSET 0.00000 0.00000 -8.79036
				CHANNELS 3 Xrotation Yrotation Zrotation
				JOINT LeftToeBase
				{
					OFFSET 0.00000 -3.94625 -1.43632
					CHANNELS 3 Xrotation Yrotation Zrotation
					End Site
					{
						OFFSET 0.00000 -1.72833 -0.00000
					}
				}
			}
		}
	}
}
MOTION
Frames: 15
Frame Time: 0.008342
 11.6912 -27.8107 23.3941 -8.9617 -3.7133 -144.6487 2.7266 -4.2483 2.5178 -0.2060 -2.9882 0.2182 2.5093 2.3248 16.6407 -0.2399 10.0840 -0.7260 -8.4926 -2.8746 -14.2512 -8.5396 3.7720 -43.0979 -1.6698 8.9500 8.7754 -47.5276 -24.1838 3.1358 0.0000 0.0000 20.6403 -35.2537 25.1655 -12.5062 0.0000 -0.0000 -0.0000 0.0000 -0.0000 0.0000 -10.1224 9.7597 0.6257 -12.3125 62.8181 16.8461 -0.0000 -0.0000 -9.1235 -7.6271 -31.3631 12.7666 -0.0000 -0.0000 -0.0000 -0.0000 0.0000 -0.0000 -14.9350 3.1448 -70.8904 -0.8855 0.0000 -0.0000 -10.4677 14.7457 43.2769 -7.9224 0.0000 -0.0000 -3.2405 0.9934 15.5283 -4.0918 0.0000 -0.0000 -5.3532 -0.4494 -18.2886 3.4650 0.0000 0.0000
 11.6721 -27.8193 23.3945 -9.0151 -3.7119 -144.6543 2.7484 -4.2578 2.5190 -0.2003 -2.9836 0.2233 2.4882 2.3116 16.6999 -0.2426 10.0771 -0.7177 -8.5268 -2.7585 -14.2152 -8.6221 3.7929 -43.1267 -1.6119 9.0054 8.8294 -47.5447 -24.0005 3.0376 0.0000 0.0000 20.6057 -35.1179 25.1656 -12.4764 -0.0000 -0.0000 -0.0000 -0.0000 -0.0000 0.0000 -10.1187 9.7631 0.5931 -12.2348 62.7127 16.7743 -0.0000 -0.0000 -9.1474 -7.6261 -31.3502 12.7628 -0.0000 0.0000 -0.0000 -0.0000 0.0000 0.0000 -14.9627 3.2104 -70.8522 -0.9414 0.0000 -0.0000 -10.3829 14.7454 43.2468 -7.9477 0.0000 -0.0000 -3.3139 1.0743 15.5474 -3.9983 0.0000 -0.0000 -5.4043 -0.4999 -18.3059 3.4406 0.0000 0.0000
 11.6538 -27.8285 23.3949 -9.1043 -3.7302 -144.6607 2.7232 -4.2656 2.5173 -0.1903 -2.9790 0.2290 2.4694 2.2988 16.7577 -0.2431 10.0758 -0.7111 -8.5560 -2.6436 -14.1796 -8.7015 3.8107 -43.1499 -1.5610 9.0664 8.8746 -47.5692 -23.8355 2.9414 0.0000 0.0000 20.5607 -35.0193 25.1532 -12.4582 0.0000 -0.0000 0.0000 -0.0000 0.0000 0.0000 -10.1187 9.7650 0.5568 -12.2763 62.5949 16.8048 -0.0000 -0.0000 -9.1587 -7.6232 -31.3478 12.7356 -0.0000 -0.0000 -0.0000 -0.0000 -0.0000 0.0000 -15.0354 3.2814 -70.8358 -0.9932 0.0000 -0.0000 -10.3066 14.7461 43.2398 -7.9768 0.0000 -0.0000 -3.4341 1.1587 15.5697 -3.8992 0.0000 -0.0000 -5.4530 -0.5494 -18.3278 3.4138 0.0000 0.0000
 11.6353 -27.8369 23.3953 -9.1455 -3.7188 -144.6657 2.7577 -4.2785 2.5174 -0.1835 -2.9735 0.2330 2.4511 2.2872 16.8123 -0.2472 10.0744 -0.7059 -8.5776 -2.5253 -14.1368 -8.7672 3.8242 -43.1717 -1.5180 9.1455 8.9227 -47.6034 -23.6899 2.8329 0.0000 0.0000 20.5104 -34.9494 25.1293 -12.4536 0.0000 -0.0000 -0.0000 -0.0000 0.0000 0.0000 -10.1177 9.7587 0.5194 -12.4661 62.4736 16.9573 -0.0000 -0.0000 -9.1461 -7.6103 -31.3620 12.6837 0.0000 -0.0000 0.0000 0.0000 0.0000 0.0000 -15.0497 3.3523 -70.8013 -1.0335 0.0000 -0.0000 -10.2336 14.7466 43.2144 -8.0074 0.0000 -0.0000 -3.4882 1.2401 15.6003 -3.8151 0.0000 -0.0000 -5.4942 -0.5927 -18.3571 3.3852 0.0000 0.0000
 11.6173 -27.8449 23.3958 -9.1781 -3.7055 -144.6689 2.8044 -4.2954 2.5160 -0.1781 -2.9671 0.2389 2.4239 2.2760 16.8647 -0.2456 10.0742 -0.7036 -8.5945 -2.4089 -14.0948 -8.8250 3.8352 -43.1883 -1.4875 9.2281 8.9565 -47.6470 -23.5734 2.7282 0.0000 0.0000 20.4545 -34.9030 25.0998 -12.4460 0.0000 -0.0000 -0.0000 -0.0000 0.0000 -0.0000 -10.1145 9.7485 0.4770 -12.7854 62.3425 17.2130 -0.0000 -0.0000 -9.1089 -7.5900 -31.3937 12.6085 -0.0000 -0.0000 0.0000 0.0000 -0.0000 -0.0000 -15.0551 3.4176 -70.7899 -1.0751 0.0000 -0.0000 -10.1644 14.7428 43.2096 -8.0400 0.0000 -0.0000 -3.5314 1.3165 15.6252 -3.7374 0.0000 -0.0000 -5.5313 -0.6332 -18.3836 3.3586 0.0000 0.0000
 11.5997 -27.8530 23.3963 -9.2169 -3.6947 -144.6686 2.8376 -4.3055 2.5122 -0.1717 -2.9645 0.2420 2.4036 2.2632 16.9089 -0.2483 10.0762 -0.6983 -8.6052 -2.2935 -14.0521 -8.8736 3.8417 -43.2000 -1.4671 9.3071 8.9879 -47.6875 -23.4675 2.6290 0.0000 0.0000 20.4017 -34.8738 25.0715 -12.4411 -0.0000 0.0000 -0.0000 -0.0000 0.0000 0.0000 -10.1189 9.7406 0.4297 -13.2432 62.1941 17.5879 -0.0000 -0.0000 -9.0424 -7.5468 -31.4449 12.5095 0.0000 -0.0000 0.0000 -0.0000 -0.0000 0.0000 -15.0691 3.4887 -70.7838 -1.1054 0.0000 -0.0000 -10.1048 14.7405 43.2076 -8.0726 0.0000 -0.0000 -3.5807 1.3937 15.6491 -3.6635 0.0000 -0.0000 -5.5640 -0.6704 -18.4139 3.3351 0.0000 0.0000
 11.5830 -27.8612 23.3967 -9.2890 -3.7039 -144.6695 2.8224 -4.3131 2.5067 -0.1597 -2.9571 0.2489 2.3862 2.2504 16.9477 -0.2497 10.0790 -0.6992 -8.6134 -2.1852 -14.0095 -8.9151 3.8449 -43.2059 -1.4590 9.3721 9.0123 -47.7285 -23.3752 2.5401 0.0000 0.0000 20.3562 -34.8425 25.0486 -12.4324 -0.0000 0.0000 -0.0000 -0.0000 -0.0000 -0.0000 -10.1187 9.7344 0.3825 -13.8046 62.0296 18.0342 -0.0000 -0.0000 -8.9457 -7.4821 -31.5152 12.3942 0.0000 -0.0000 0.0000 0.0000 -0.0000 0.0000 -15.1254 3.5622 -70.7867 -1.1330 0.0000 -0.0000 -10.0508 14.7412 43.2152 -8.1052 0.0000 -0.0000 -3.6727 1.4716 15.6627 -3.5874 0.0000 -0.0000 -5.5952 -0.7074 -18.4356 3.3167 0.0000 0.0000
 11.5665 -27.8683 23.3972 -9.3115 -3.6888 -144.6648 2.8675 -4.3219 2.5058 -0.1544 -2.9510 0.2492 2.3637 2.2362 16.9767 -0.2514 10.0764 -0.6953 -8.6168 -2.0784 -13.9658 -8.9447 3.8459 -43.2093 -1.4605 9.4378 9.0358 -47.7716 -23.2962 2.4471 0.0000 0.0000 20.3245 -34.7986 25.0320 -12.4181 0.0000 0.0000 -0.0000 0.0000 -0.0000 -0.0000 -10.1132 9.7250 0.3351 -14.4494 61.8609 18.5358 -0.0000 -0.0000 -8.8157 -7.3923 -31.6039 12.2621 0.0000 -0.0000 0.0000 -0.0000 0.0000 0.0000 -15.1222 3.6254 -70.7759 -1.1606 0.0000 -0.0000 -9.9920 14.7398 43.2026 -8.1372 0.0000 -0.0000 -3.6991 1.5400 15.6728 -3.5285 0.0000 -0.0000 -5.6216 -0.7392 -18.4570 3.3034 0.0000 0.0000
 11.5505 -27.8752 23.3976 -9.3396 -3.6763 -144.6581 2.8998 -4.3235 2.5008 -0.1479 -2.9450 0.2529 2.3460 2.2205 16.9992 -0.2543 10.0712 -0.6938 -8.6172 -1.9767 -13.9236 -8.9674 3.8451 -43.2084 -1.4696 9.4917 9.0535 -47.8033 -23.2239 2.3695 0.0000 0.0000 20.3035 -34.7334 25.0256 -12.3950 0.0000 0.0000 -0.0000 0.0000 0.0000 -0.0000 -10.1179 9.7191 0.2846 -15.1432 61.6798 19.0846 -0.0000 -0.0000 -8.6668 -7.2718 -31.7050 12.1260 -0.0000 0.0000 -0.0000 -0.0000 0.0000 0.0000 -15.1264 3.6908 -70.7754 -1.1827 0.0000 -0.0000 -9.9426 14.7387 43.1990 -8.1671 0.0000 -0.0000 -3.7307 1.6083 15.6771 -3.4733 0.0000 -0.0000 -5.6462 -0.7701 -18.4744 3.2959 0.0000 0.0000
 11.5352 -27.8818 23.3979 -9.3703 -3.6684 -144.6497 2.9224 -4.3197 2.4970 -0.1425 -2.9397 0.2554 2.3317 2.2036 17.0136 -0.2569 10.0617 -0.6919 -8.6157 -1.8812 -13.8831 -8.9837 3.8433 -43.2049 -1.4833 9.5345 9.0666 -47.8247 -23.1551 2.3032 0.0000 0.0000 20.2984 -34.6367 25.0280 -12.3652 0.0000 -0.0000 0.0000 -0.0000 0.0000 0.0000 -10.1236 9.7168 0.2348 -15.8258 61.4945 19.6189 -0.0000 -0.0000 -8.5060 -7.1284 -31.8154 11.9976 0.0000 0.0000 -0.0000 0.0000 -0.0000 -0.0000 -15.1360 3.7542 -70.7748 -1.2009 0.0000 -0.0000 -9.8972 14.7390 43.1927 -8.1948 0.0000 -0.0000 -3.7655 1.6732 15.6776 -3.4227 0.0000 -0.0000 -5.6706 -0.8005 -18.4889 3.2937 0.0000 0.0000
 11.5205 -27.8880 23.3982 -9.3950 -3.6620 -144.6384 2.9434 -4.3138 2.4929 -0.1376 -2.9330 0.2570 2.3206 2.1856 17.0204 -0.2591 10.0464 -0.6891 -8.6126 -1.7922 -13.8457 -8.9948 3.8403 -43.1986 -1.4978 9.5690 9.0764 -47.8332 -23.0872 2.2472 0.0000 0.0000 20.3091 -34.5056 25.0380 -12.3299 0.0000 0.0000 -0.0000 0.0000 0.0000 0.0000 -10.1255 9.7164 0.1876 -16.4678 61.3122 20.1106 -0.0000 -0.0000 -8.3398 -6.9668 -31.9286 11.8786 0.0000 -0.0000 -0.0000 -0.0000 -0.0000 -0.0000 -15.1408 3.8116 -70.7750 -1.2193 0.0000 -0.0000 -9.8522 14.7388 43.1830 -8.2208 0.0000 -0.0000 -3.7933 1.7324 15.6745 -3.3787 0.0000 -0.0000 -5.6953 -0.8308 -18.5010 3.2960 0.0000 0.0000
 11.5066 -27.8945 23.3983 -9.4489 -3.6682 -144.6288 2.9252 -4.2947 2.4909 -0.1324 -2.9255 0.2584 2.3155 2.1656 17.0187 -0.2599 10.0284 -0.6858 -8.6090 -1.7130 -13.8124 -9.0039 3.8376 -43.1899 -1.5102 9.5909 9.0824 -47.8232 -23.0147 2.2079 0.0000 0.0000 20.3333 -34.3417 25.0506 -12.2915 0.0000 -0.0000 -0.0000 -0.0000 -0.0000 -0.0000 -10.1311 9.7196 0.1441 -17.0252 61.1358 20.5333 -0.0000 -0.0000 -8.1816 -6.7920 -32.0387 11.7805 0.0000 -0.0000 0.0000 0.0000 0.0000 -0.0000 -15.1811 3.8776 -70.7692 -1.2296 0.0000 -0.0000 -9.8179 14.7455 43.1707 -8.2433 0.0000 -0.0000 -3.8561 1.7972 15.6721 -3.3318 0.0000 -0.0000 -5.7209 -0.8634 -18.5114 3.3017 0.0000 0.0000
 11.4930 -27.8996 23.3985 -9.4582 -3.6656 -144.6111 2.9433 -4.2861 2.4850 -0.1296 -2.9195 0.2589 2.3148 2.1468 17.0126 -0.2612 10.0034 -0.6809 -8.6034 -1.6392 -13.7829 -9.0071 3.8335 -43.1822 -1.5150 9.6113 9.0851 -47.7941 -22.9393 2.1806 0.0000 0.0000 20.3664 -34.1574 25.0635 -12.2466 0.0000 0.0000 0.0000 0.0000 -0.0000 -0.0000 -10.1345 9.7213 0.1034 -17.4860 60.9759 20.8772 -0.0000 -0.0000 -8.0388 -6.6077 -32.1387 11.7100 0.0000 -0.0000 0.0000 0.0000 -0.0000 -0.0000 -15.1732 3.9203 -70.7814 -1.2495 0.0000 -0.0000 -9.7756 14.7424 43.1634 -8.2656 0.0000 -0.0000 -3.8675 1.8429 15.6670 -3.3000 0.0000 -0.0000 -5.7480 -0.8952 -18.5241 3.3085 0.0000 0.0000
 11.4798 -27.9048 23.3985 -9.4711 -3.6594 -144.5946 2.9558 -4.2671 2.4814 -0.1289 -2.9127 0.2593 2.3190 2.1264 17.0003 -0.2608 9.9760 -0.6765 -8.5964 -1.5751 -13.7567 -9.0088 3.8304 -43.1741 -1.5120 9.6277 9.0874 -47.7432 -22.8567 2.1684 0.0000 0.0000 20.4055 -33.9510 25.0694 -12.2102 -0.0000 0.0000 -0.0000 0.0000 -0.0000 0.0000 -10.1400 9.7218 0.0689 -17.8289 60.8350 21.1307 -0.0000 -0.0000 -7.9219 -6.4313 -32.2250 11.6599 -0.0000 0.0000 -0.0000 -0.0000 0.0000 -0.0000 -15.1680 3.9690 -70.7866 -1.2633 0.0000 -0.0000 -9.7428 14.7436 43.1526 -8.2853 0.0000 -0.0000 -3.8790 1.8931 15.6658 -3.2708 0.0000 -0.0000 -5.7747 -0.9290 -18.5376 3.3164 0.0000 0.0000
 11.4672 -27.9096 23.3985 -9.4827 -3.6551 -144.5764 2.9619 -4.2472 2.4780 -0.1286 -2.9045 0.2597 2.3273 2.1067 16.9810 -0.2589 9.9486 -0.6703 -8.5885 -1.5230 -13.7370 -9.0078 3.8274 -43.1652 -1.5009 9.6380 9.0898 -47.6719 -22.7652 2.1677 0.0000 0.0000 20.4482 -33.7452 25.0657 -12.1728 0.0000 -0.0000 0.0000 0.0000 0.0000 0.0000 -10.1447 9.7181 0.0406 -18.0505 60.7162 21.2887 -0.0000 -0.0000 -7.8340 -6.2645 -32.2942 11.6379 -0.0000 0.0000 0.0000 0.0000 -0.0000 0.0000 -15.1628 4.0147 -70.7979 -1.2762 0.0000 -0.0000 -9.7144 14.7447 43.1460 -8.3036 0.0000 -0.0000 -3.8893 1.9404 15.6643 -3.2447 0.0000 -0.0000 -5.8019 -0.9644 -18.5518 3.3235 0.0000 0.0000
